# xmcd
#
# Track frame offsets:
#	150
#	28458
#	48923
#	69925
#	101365
#	129173
#	146213
#	166505
#	183898
#
# Disc length: 2684 seconds
#
# Revision: 1
# Processed by: cddbd v1.5.1PL0 Copyright (c) Steve Scherf et al.
# Submitted via: CDex 1.50Beta5
#
DISCID=6f0a7a09
DTITLE=財津和夫 - I must be Crazy
DYEAR=1990
DGENRE=Pop
TTITLE0=ふたりだけのスクリーン
TTITLE1=サイド・シート
TTITLE2=白いシャツの君
TTITLE3=永遠の日々
TTITLE4=12才
TTITLE5=君の指
TTITLE6=未来を残さないで
TTITLE7=Dream With You
TTITLE8=3フィートの高さから
EXTD=
EXTT0=
EXTT1=
EXTT2=
EXTT3=
EXTT4=
EXTT5=
EXTT6=
EXTT7=
EXTT8=
PLAYORDER=
